<?xml version="1.0" standalone="no"?>
<!DOCTYPE svg PUBLIC "-//W3C//DTD SVG 20010904//EN"
 "http://www.w3.org/TR/2001/REC-SVG-20010904/DTD/svg10.dtd">
<svg version="1.0" xmlns="http://www.w3.org/2000/svg"
 width="512.000000pt" height="512.000000pt" viewBox="0 0 512.000000 512.000000"
 preserveAspectRatio="xMidYMid meet">
<metadata>
Created by potrace 1.11, written by Peter Selinger 2001-2013
</metadata>
<g transform="translate(0.000000,512.000000) scale(0.100000,-0.100000)"
fill="#000000" stroke="none">
<path d="M1280 5040 l0 -79 -522 -3 -523 -3 -49 -24 c-63 -31 -126 -94 -157
-157 l-24 -49 0 -2245 0 -2245 24 -47 c41 -85 118 -150 206 -176 49 -14 3632
-17 3680 -3 17 5 84 25 150 44 108 32 278 104 360 154 63 38 192 138 248 192
107 103 238 277 278 369 8 17 17 32 21 32 5 0 8 8 8 18 0 10 4 22 9 28 26 28
89 231 112 362 24 130 16 409 -14 542 -41 177 -123 363 -230 519 -74 108 -253
284 -365 359 -80 53 -211 122 -304 160 l-28 12 -2 942 c0 519 -2 948 -3 953
-24 125 -135 240 -250 259 -16 2 -254 5 -527 5 l-498 1 0 80 0 80 -800 0 -800
0 0 -80z"/>
</g>
</svg>
